<svg width="40" height="40" viewBox="0 0 40 40" fill="none" xmlns="http://www.w3.org/2000/svg">
  <rect width="40" height="40" rx="20" fill="#F7EEE6"/>
  <path d="M11.5 17.5 C11 9 29 9 28.5 17.5 L28.5 21.5 C27 26 25.5 25 25.2 23 L14.8 23 C14.5 25 13 26 11.5 21.5 Z" fill="#241208"/>
  <ellipse cx="20" cy="21" rx="8" ry="9.5" fill="#F5CBA7"/>
  <path d="M14.5 17.8 Q16.5 16.4 18.5 17.2" stroke="#241208" stroke-width="0.9" fill="none" stroke-linecap="round"/>
  <path d="M21.5 17.2 Q23.5 16.4 25.5 17.8" stroke="#241208" stroke-width="0.9" fill="none" stroke-linecap="round"/>
  <ellipse cx="16.5" cy="19.8" rx="2" ry="1.5" fill="#241208"/>
  <ellipse cx="23.5" cy="19.8" rx="2" ry="1.5" fill="#241208"/>
  <circle cx="17.3" cy="19.2" r="0.55" fill="white"/>
  <circle cx="24.3" cy="19.2" r="0.55" fill="white"/>
  <circle cx="19.3" cy="22.5" r="0.55" fill="#D4946A" opacity="0.5"/>
  <circle cx="20.7" cy="22.5" r="0.55" fill="#D4946A" opacity="0.5"/>
  <path d="M17.5 25.2 Q19.5 27.2 22.5 25.2" stroke="#D4946A" stroke-width="1.4" fill="none" stroke-linecap="round"/>
  <rect x="17.5" y="29.5" width="5" height="4" rx="1" fill="#F5CBA7"/>
  <path d="M6 40 C9 33.5 13 31.5 17.5 30.5 L19.5 31.5 L20.5 31.5 L22.5 30.5 C27 31.5 31 33.5 34 40 Z" fill="#E8A87C"/>
</svg>
